Coordinates
version=1
nRows=6
nColumns=53
inDegrees=yes

Units are S.I. units (second, meters, Newtons, ...)
Angles are in degrees.

endheader
time	pelvis_tilt	pelvis_list	pelvis_rot	pelvis_tx	pelvis_ty	pelvis_tz	hip_flex_r	hip_add_r	hip_rot_r	pf_flex_r	pf_rot_r	pf_tilt_r	pf_tx_r	pf_ty_r	pf_tz_r	knee_flex_r	knee_add_r	knee_rot_r	knee_tx_r	knee_ty_r	knee_tz_r	ankle_flex_r	subt_angle_r	mtp_angle_r	hip_flex_l	hip_add_l	hip_rot_l	pf_l_r3	pf_l_tx	pf_l_ty	knee_flex_l	ankle_flex_l	subt_angle_l	mtp_angle_l	lumbar_ext	lumbar_latbend	lumbar_rot	neck_ext	neck_latbend	neck_rot	arm_add_r	arm_flex_r	arm_rot_r	elbow_flex_r	pro_sup_r	wrist_flex_r	arm_add_l	arm_flex_l	arm_rot_l	elbow_flex_l	pro_sup_l	wrist_flex_l
      0.00000000	     -2.54501328	      1.28079755	     -6.86360318	     -1.64618610	      0.90631014	     -0.24095921	     22.01580693	     -4.37830930	     -6.67146882	      0.00000000	      0.00000000	      0.00000000	      0.05300000	      0.00500000	      0.00400000	     55.16226637	      2.43736323	     -9.43360190	      0.02402202	      0.00425879	      0.00106590	      1.94956957	      1.18099254	      0.00000000	      3.55110848	     -3.03553081	     -6.16045333	      0.06513700	      0.04435000	     -0.41871200	      0.07213044	      0.00701369	     -0.07617741	      0.00000000	    -12.49429126	     -4.03959769	     -0.72638595	      0.00000000	      0.00000000	      0.00000000	    -16.06099792	     17.69957386	     40.71560973	     15.27249383	     61.53023340	      0.00000000	    -21.01459114	     22.03507989	     30.82556442	     14.81254461	     60.11105837	      0.00000000
      0.00500000	     -2.58377042	      1.15542435	     -6.56570114	     -1.64000481	      0.90721079	     -0.24072523	     22.44861340	     -4.11003562	     -6.58738445	      0.00000000	      0.00000000	      0.00000000	      0.05300000	      0.00500000	      0.00400000	     53.72839627	      2.51822659	     -9.81970315	      0.02401531	      0.00437554	      0.00043281	      2.13561069	      1.17847587	      0.00000000	      2.94611671	     -2.91308169	     -6.28728377	      0.06513700	      0.04435000	     -0.41871200	      0.06521932	      0.00926259	     -0.07140424	      0.00000000	    -12.50776217	     -3.81429143	     -1.06579654	      0.00000000	      0.00000000	      0.00000000	    -15.96418791	     17.42980398	     40.62888928	     15.19144769	     61.52585106	      0.00000000	    -21.43884534	     23.04142277	     30.84309982	     14.81976330	     60.10315259	      0.00000000
      0.01000000	     -2.45843722	      1.00707814	     -6.43599675	     -1.63366074	      0.90833342	     -0.24022222	     22.59801026	     -3.70059123	     -5.92703138	      0.00000000	      0.00000000	      0.00000000	      0.05300000	      0.00500000	      0.00400000	     52.08187005	      2.95695302	    -10.78301530	      0.02476901	      0.00427514	      0.00079329	      2.12207370	      1.16307388	      0.00000000	      2.07758435	     -2.75110208	     -6.00567229	      0.06513700	      0.04435000	     -0.41871200	      0.05597006	      0.01930285	     -0.05451340	      0.00000000	    -12.66508165	     -3.62925047	     -0.86562191	      0.00000000	      0.00000000	      0.00000000	    -16.04939454	     17.02458986	     40.31762325	     14.82741364	     61.50570456	      0.00000000	    -21.50855339	     24.35860170	     30.97646097	     15.03214579	     60.08615988	      0.00000000
      0.01500000	     -2.46818288	      0.90990760	     -6.29281114	     -1.62736900	      0.90916658	     -0.23967374	     22.95859781	     -3.32526295	     -5.24871673	      0.00000000	      0.00000000	      0.00000000	      0.05300000	      0.00500000	      0.00400000	     50.45517021	      3.30818047	    -11.61970229	      0.02500820	      0.00426200	      0.00092069	      2.14889530	      1.15941657	      0.00000000	      1.43910922	     -2.62399593	     -5.66798267	      0.06513700	      0.04435000	     -0.41871200	      0.04970444	      0.03465818	     -0.03157567	      0.00000000	    -12.70817040	     -3.53739466	     -0.80416819	      0.00000000	      0.00000000	      0.00000000	    -15.98805940	     16.61684679	     39.92294529	     14.45200088	     61.49168654	      0.00000000	    -21.81546552	     25.55559254	     31.08385994	     15.31164773	     60.06428651	      0.00000000
      0.02000000	     -2.57809350	      0.82255640	     -6.09604145	     -1.62105085	      0.90975602	     -0.23918029	     23.53637151	     -3.03502216	     -5.05308784	      0.00000000	      0.00000000	      0.00000000	      0.05300000	      0.00500000	      0.00400000	     48.97653807	      3.24639536	    -11.85928912	      0.02421241	      0.00411359	      0.00005851	      2.29764688	      1.18410166	      0.00000000	      0.91055191	     -2.50331730	     -5.52591211	      0.06513700	      0.04435000	     -0.41871200	      0.04293703	      0.03950183	     -0.02381615	      0.00000000	    -12.64547361	     -3.38839569	     -1.10988772	      0.00000000	      0.00000000	      0.00000000	    -15.84697930	     16.33278422	     39.82498037	     14.33099414	     61.48600085	      0.00000000	    -22.38180748	     26.49762455	     31.02744790	     15.45974939	     60.05912706	      0.00000000
      0.02500000	     -2.56599807	      0.73204071	     -6.02509325	     -1.61464240	      0.91044418	     -0.23852775	     23.78539763	     -2.64162660	     -4.07771509	      0.00000000	      0.00000000	      0.00000000	      0.05300000	      0.00500000	      0.00400000	     47.19536678	      3.70308787	    -12.95327848	      0.02472685	      0.00386802	      0.00037704	      2.16662142	      1.28311645	      0.00000000	      0.24401695	     -2.36861138	     -4.87660432	      0.06513700	      0.04435000	     -0.41871200	      0.03707966	      0.06392264	      0.01094613	      0.00000000	    -12.65152749	     -3.30326757	     -0.87139037	      0.00000000	      0.00000000	      0.00000000	    -15.81545223	     15.90306610	     39.25662883	     13.74864077	     61.47193164	      0.00000000	    -22.59841029	     27.70110455	     30.99877318	     16.23344227	     60.03317271	      0.00000000
